<svg width="48" height="48" viewBox="0 0 48 48" fill="none" xmlns="http://www.w3.org/2000/svg">
<g clip-path="url(#clip0_209_37)">
<path d="M24 0.959961C11.2752 0.959961 0.959961 11.2752 0.959961 24C0.959961 36.7248 11.2752 47.04 24 47.04C36.7248 47.04 47.04 36.7248 47.04 24C47.04 11.2752 36.7248 0.959961 24 0.959961ZM33.372 19.8336C33.3816 20.0304 33.384 20.2272 33.384 20.4192C33.384 26.4192 28.8216 33.3336 20.4744 33.3336C18.0079 33.3377 15.5927 32.6293 13.5192 31.2936C13.872 31.3368 14.2344 31.3536 14.6016 31.3536C16.728 31.3536 18.684 30.6312 20.2368 29.412C19.2905 29.3934 18.3736 29.08 17.6138 28.5156C16.8541 27.9512 16.2894 27.1638 15.9984 26.2632C16.6779 26.3924 17.378 26.3653 18.0456 26.184C17.0185 25.9763 16.0948 25.4197 15.4313 24.6088C14.7677 23.7978 14.405 22.7822 14.4048 21.7344V21.6792C15.0168 22.0176 15.7176 22.224 16.4616 22.248C15.4987 21.607 14.817 20.6224 14.5561 19.4955C14.2951 18.3686 14.4745 17.1846 15.0576 16.1856C16.1975 17.5872 17.619 18.7338 19.2301 19.5511C20.8413 20.3685 22.6061 20.8384 24.4104 20.9304C24.181 19.9567 24.2797 18.9345 24.6912 18.0228C25.1027 17.111 25.8039 16.3607 26.6857 15.8886C27.5676 15.4165 28.5808 15.2489 29.5677 15.412C30.5546 15.5751 31.46 16.0596 32.1432 16.7904C33.1588 16.5894 34.1327 16.2169 35.0232 15.6888C34.6847 16.7403 33.976 17.6332 33.0288 18.2016C33.9284 18.0932 34.8068 17.8513 35.6352 17.484C35.0267 18.3957 34.2603 19.1914 33.372 19.8336V19.8336Z" fill="#F6F9FE"/>
</g>
<defs>
<clipPath id="clip0_209_37">
<rect width="48" height="48" fill="white"/>
</clipPath>
</defs>
</svg>
