<svg width="48" height="48" viewBox="0 0 48 48" fill="none" xmlns="http://www.w3.org/2000/svg">
<path d="M48 43.2166H5.57788V0H48V43.2166Z" fill="#B9D6F8"/>
<path d="M42.4222 48H0V4.80185H42.4222V48Z" fill="#05172E"/>
<path fill-rule="evenodd" clip-rule="evenodd" d="M11.5585 14.4685C11.4743 14.4685 11.4099 14.414 11.4099 14.3468C11.4099 14.2754 11.4743 14.2208 11.5585 14.2208H22.0293C23.0661 14.2208 23.9758 14.2376 24.7584 14.2712C25.536 14.309 26.1799 14.3594 26.695 14.4308H26.7C27.2151 14.5021 27.7104 14.6155 28.176 14.7624C28.6416 14.9094 29.0775 15.0983 29.4886 15.3208L29.4935 15.325C29.9046 15.5517 30.2811 15.8162 30.6228 16.1143C30.9646 16.4166 31.2717 16.7525 31.549 17.1303C31.8215 17.504 32.0295 17.9112 32.1682 18.3311C32.3019 18.7593 32.3762 19.2043 32.3762 19.6703C32.3762 20.1769 32.2904 20.6654 32.1186 21.1356C31.9502 21.6016 31.6976 22.0424 31.3608 22.4665C31.024 22.8919 30.6261 23.2627 30.1671 23.579C29.8056 23.8309 29.4044 24.0492 28.9635 24.234C29.6223 24.4145 30.2167 24.6454 30.7466 24.9183C31.3707 25.25 31.9007 25.6446 32.3415 26.1106C32.7824 26.5767 33.1043 27.0847 33.3272 27.6305C33.5451 28.1762 33.6541 28.764 33.6541 29.3938C33.6541 29.8892 33.5847 30.372 33.4461 30.8506C33.3024 31.3334 33.0894 31.8036 32.8121 32.2697C32.5248 32.7357 32.188 33.1555 31.8066 33.5292C31.4153 33.8986 30.9794 34.2261 30.4841 34.5074C29.9938 34.7845 29.444 35.0112 28.8397 35.1833C28.2404 35.3555 27.5816 35.473 26.8684 35.5318C26.4028 35.578 25.5757 35.6116 24.3919 35.641C23.3468 35.662 22.0392 35.6787 20.474 35.6787H13.5397C13.4605 35.6787 13.3911 35.6242 13.3911 35.5528C13.3911 35.4856 13.4605 35.431 13.5397 35.431H20.474C22.0639 35.431 23.3666 35.4143 24.3869 35.3933C25.5558 35.3681 26.3731 35.3261 26.8436 35.2883C27.5338 35.2267 28.1678 35.1134 28.7456 34.9482C29.3268 34.7831 29.8534 34.5676 30.3256 34.3017C30.7912 34.033 31.2122 33.7181 31.5837 33.3654C31.9552 33.0044 32.2771 32.6013 32.5496 32.1563C32.8203 31.7057 33.0234 31.2523 33.1588 30.796C33.2925 30.3342 33.3619 29.8682 33.3619 29.3938C33.3619 28.7892 33.2578 28.2308 33.0498 27.7102C32.8418 27.1896 32.5297 26.711 32.1137 26.266C31.6927 25.821 31.1825 25.4473 30.5881 25.1324C29.9888 24.8133 29.3004 24.5656 28.5178 24.3809C28.4781 24.3683 28.4385 24.3431 28.4237 24.3053C28.389 24.2466 28.4237 24.171 28.498 24.1458C29.0477 23.9443 29.5431 23.6924 29.9839 23.3859C30.4197 23.0836 30.7978 22.731 31.1181 22.3279C31.4351 21.9249 31.6778 21.5008 31.8413 21.06C31.9998 20.6192 32.079 20.1531 32.079 19.6703C32.079 19.2253 32.0146 18.7971 31.8859 18.3982C31.7521 17.9952 31.5589 17.6173 31.3014 17.2605C31.0339 16.8994 30.7417 16.5761 30.4148 16.2864C30.0879 16.001 29.7263 15.7532 29.335 15.5349L29.3301 15.5307C28.9338 15.3166 28.5178 15.1361 28.072 14.9975C27.6262 14.8506 27.1507 14.7456 26.6455 14.6785L26.6505 14.6743C26.1453 14.6071 25.5113 14.5567 24.7435 14.5231C23.9758 14.4895 23.0744 14.4685 22.0293 14.4685H11.5585ZM11.7071 35.5528C11.7071 35.6242 11.6378 35.6787 11.5585 35.6787C11.4793 35.6787 11.4149 35.6242 11.4149 35.5528V15.4342C11.4149 15.367 11.4793 15.3082 11.5585 15.3082C11.5635 15.3082 11.5684 15.3082 11.5734 15.3124H23.3369C23.4211 15.3124 23.4855 15.367 23.4855 15.4342C23.4855 15.5055 23.4211 15.5601 23.3369 15.5601H11.7071V35.5528ZM27.5123 33.8692C27.5916 33.8692 27.6559 33.9238 27.6559 33.991C27.6559 34.0624 27.5916 34.117 27.5123 34.117L13.5397 34.1337C13.4605 34.1337 13.3961 34.075 13.3961 34.0078V19.7375C13.3961 19.6661 13.4605 19.6116 13.5397 19.6116C13.6239 19.6116 13.6883 19.6661 13.6883 19.7375V33.886L27.5123 33.8692ZM17.9925 18.7467C17.9925 18.6795 18.0569 18.6249 18.1362 18.6249C18.2154 18.6249 18.2798 18.6795 18.2798 18.7467L18.2897 22.6302H19.4933C20.5879 22.6302 21.6826 22.6218 22.5295 22.6092C23.3121 22.5966 23.9114 22.5798 24.1442 22.5546C24.585 22.5126 24.9813 22.4329 25.323 22.3111C25.6599 22.1908 25.9504 22.0326 26.1948 21.8367C26.4424 21.6352 26.6208 21.4085 26.7446 21.1524C26.8635 20.8921 26.9229 20.6024 26.9229 20.2749C26.9229 19.96 26.8684 19.6787 26.7644 19.4268C26.6604 19.1791 26.5019 18.9566 26.2938 18.7635C26.0809 18.5746 25.8233 18.4192 25.5113 18.3059C25.1943 18.1841 24.8228 18.1043 24.3968 18.0666C24.1393 18.0414 23.6341 18.0246 22.8911 18.012C22.158 17.998 21.1608 17.991 19.8995 17.991H17.0118V22.7561C17.0118 22.8233 16.9474 22.8779 16.8682 22.8779C16.784 22.8779 16.7196 22.8233 16.7196 22.7561V17.865C16.7196 17.7979 16.784 17.7391 16.8682 17.7391H19.8995C21.1212 17.7419 22.1201 17.7489 22.8961 17.7601C23.6539 17.7727 24.164 17.7937 24.4315 17.8189C24.8822 17.8608 25.2834 17.9448 25.6301 18.075C25.9818 18.2051 26.274 18.3772 26.5118 18.5956C26.7446 18.8139 26.9229 19.0616 27.0418 19.3429C27.1606 19.6242 27.2151 19.9348 27.2151 20.2749C27.2184 20.6304 27.1524 20.9536 27.017 21.2447C26.8783 21.5386 26.6752 21.7947 26.3979 22.013C26.1254 22.2355 25.8035 22.4077 25.432 22.542C25.0622 22.6736 24.6445 22.7603 24.1789 22.8023C23.9411 22.8275 23.327 22.8443 22.5345 22.8569C21.6479 22.8737 20.5483 22.8779 19.4933 22.8779H18.1411C18.0619 22.8779 17.9975 22.8233 17.9975 22.7561L17.9925 18.7467ZM16.8286 31.9632C16.7493 31.9632 16.68 31.9086 16.68 31.8414C16.68 31.7743 16.7444 31.7155 16.8236 31.7155C17.2892 31.7113 18.4977 31.7197 19.8648 31.7239C22.2522 31.7365 25.1249 31.7533 25.3726 31.7113C25.749 31.6567 26.0908 31.5601 26.3979 31.4258C26.705 31.2914 26.9774 31.1193 27.2102 30.9052C27.443 30.6911 27.6163 30.4392 27.7352 30.1579C27.8541 29.8682 27.9135 29.5449 27.9135 29.1797C27.9135 28.8732 27.8689 28.5877 27.7798 28.3316C27.6857 28.0713 27.5519 27.8404 27.3687 27.6305L27.3637 27.6221C27.1854 27.4163 26.9675 27.2358 26.7099 27.0847C26.4424 26.9251 26.1354 26.7992 25.7936 26.7026C25.4436 26.6047 24.8806 26.5291 24.1046 26.4759C23.327 26.4255 22.3364 26.4045 21.1377 26.4045H17.0118V30.8212H24.699C24.803 30.8212 24.8971 30.817 24.9961 30.817C25.0754 30.817 25.1398 30.8716 25.1398 30.943C25.1398 31.0102 25.0754 31.0689 24.9961 31.0689C24.9004 31.0689 24.8013 31.0689 24.699 31.0689C24.481 31.0689 24.4117 31.0689 24.3919 31.0689H16.8682C16.784 31.0689 16.7196 31.0144 16.7196 30.9472V26.2786C16.7196 26.2072 16.784 26.1526 16.8682 26.1526H21.1377C22.3463 26.1526 23.3418 26.1778 24.1294 26.2324C24.9268 26.2828 25.5063 26.3584 25.8827 26.4633C26.2559 26.5697 26.5861 26.7082 26.8734 26.8789C27.1606 27.0469 27.4033 27.2484 27.6015 27.4793L27.6064 27.4835C27.8078 27.7158 27.9581 27.9747 28.0571 28.2602C28.1562 28.5415 28.2107 28.848 28.2107 29.1797C28.2107 29.5701 28.1413 29.9228 28.0126 30.2377C27.8788 30.5567 27.6857 30.8296 27.4231 31.0689V31.0731C27.1656 31.3082 26.8684 31.4972 26.5365 31.6483C26.1997 31.7911 25.8283 31.896 25.4221 31.959C25.1546 32.001 22.2621 31.9842 19.8648 31.9716C18.4977 31.9632 17.2941 31.959 16.8286 31.9632V31.9632Z" fill="#B9D6F8"/>
<path d="M10.1767 19.0028C10.1767 18.9356 10.2411 18.881 10.3204 18.881C10.4046 18.881 10.4689 18.9398 10.4689 19.007L10.2312 38.181C10.2312 38.2524 10.1668 38.3069 10.0826 38.3027C10.0034 38.3027 9.93896 38.2482 9.93896 38.1768L10.1767 19.0028Z" fill="#B9D6F8"/>
<path d="M8.88869 20.5394C8.88869 20.4722 8.95803 20.4176 9.03728 20.4176C9.12148 20.4176 9.18587 20.4722 9.18587 20.5394L9.01252 34.6418C9.01252 34.7089 8.94317 34.7677 8.86392 34.7635C8.77972 34.7635 8.71533 34.7089 8.71533 34.6376L8.88869 20.5394Z" fill="#B9D6F8"/>
<path d="M24.8424 16.2151C24.7632 16.2025 24.7087 16.1395 24.7236 16.0723C24.7335 16.0052 24.8127 15.959 24.892 15.9716C25.3014 16.0275 25.6894 16.1143 26.0559 16.2319C26.4225 16.3494 26.7692 16.4964 27.0961 16.6727L27.101 16.6769C27.4246 16.856 27.7218 17.0645 27.9926 17.3025C28.26 17.5376 28.5027 17.8063 28.7207 18.1001C28.9337 18.3982 29.1021 18.7173 29.211 19.0532C29.32 19.3891 29.3745 19.7417 29.3745 20.1112C29.3745 20.51 29.3051 20.8963 29.1714 21.2657C29.0377 21.631 28.8396 21.9836 28.5721 22.3195C28.3046 22.6554 27.9926 22.9493 27.631 23.197C27.2645 23.4489 26.8583 23.6546 26.4026 23.8225C26.3284 23.8519 26.2442 23.8225 26.2095 23.7596C26.1798 23.6966 26.2095 23.6252 26.2838 23.5958C26.7196 23.4405 27.101 23.2432 27.4428 23.0039C27.7846 22.7729 28.0768 22.4958 28.3294 22.181C28.577 21.8675 28.7653 21.5386 28.894 21.1944C29.0179 20.8459 29.0823 20.4848 29.0823 20.1112C29.0823 19.7627 29.0278 19.431 28.9287 19.1162C28.8247 18.8055 28.6712 18.5116 28.4681 18.2303C28.265 17.949 28.0372 17.6971 27.7796 17.4746C27.522 17.2479 27.2447 17.0548 26.9425 16.8868L26.9376 16.8826C26.6305 16.7147 26.3036 16.5761 25.9569 16.4628C25.6052 16.3536 25.2337 16.2697 24.8424 16.2151V16.2151ZM24.6691 21.9711C24.6096 22.0172 24.5205 22.0172 24.466 21.9669C24.4066 21.9165 24.4115 21.8409 24.466 21.7905C24.6542 21.6394 24.7979 21.463 24.892 21.2657C24.9861 21.0684 25.0307 20.8417 25.0307 20.5898C25.0307 20.3435 24.9894 20.1238 24.9068 19.9306C24.8226 19.7375 24.7038 19.5696 24.5403 19.4184C24.3818 19.2715 24.1837 19.1539 23.941 19.0616C23.6933 18.9692 23.4011 18.9104 23.0742 18.881C22.9949 18.8726 22.9355 18.8097 22.9454 18.7425C22.9553 18.6711 23.0296 18.6249 23.1089 18.6333C23.4655 18.6627 23.7825 18.7341 24.0599 18.8349C24.3372 18.9398 24.57 19.0784 24.7582 19.2505C24.9465 19.424 25.0884 19.6228 25.1842 19.8467C25.2783 20.0692 25.3278 20.3127 25.3278 20.5898C25.3278 20.8711 25.2684 21.1272 25.1594 21.3581C25.0505 21.589 24.892 21.7947 24.6691 21.9711V21.9711Z" fill="#B9D6F8"/>
<path d="M47.9999 43.2166L42.4003 47.9631L41.8992 47.5198L47.477 42.7734L47.9999 43.2166Z" fill="#05172E"/>
<path d="M6.10077 0.443246L0.522922 5.17122L0 4.72797L5.59964 0L6.10077 0.443246Z" fill="#05172E"/>
<path fill-rule="evenodd" clip-rule="evenodd" d="M45.9746 2.25185L45.865 40.9271L45.2978 40.9259L45.406 2.73467L8.71645 2.86295L8.71411 2.38212L45.9746 2.25185Z" fill="#060036"/>
</svg>
