<svg width="161" height="48" viewBox="0 0 161 48" fill="none" xmlns="http://www.w3.org/2000/svg">
<path d="M48 43.2166H5.57788V0H48V43.2166Z" fill="#B9D6F8"/>
<path d="M42.4222 48H0V4.80185H42.4222V48Z" fill="#FF6352"/>
<path fill-rule="evenodd" clip-rule="evenodd" d="M11.5585 14.4685C11.4743 14.4685 11.4099 14.414 11.4099 14.3468C11.4099 14.2754 11.4743 14.2208 11.5585 14.2208H22.0293C23.0661 14.2208 23.9758 14.2376 24.7584 14.2712C25.536 14.309 26.1799 14.3594 26.695 14.4307H26.7C27.2151 14.5021 27.7104 14.6155 28.176 14.7624C28.6416 14.9094 29.0775 15.0983 29.4886 15.3208L29.4935 15.325C29.9046 15.5517 30.2811 15.8162 30.6228 16.1143C30.9646 16.4166 31.2717 16.7524 31.549 17.1303C31.8215 17.504 32.0295 17.9112 32.1682 18.331C32.3019 18.7593 32.3762 19.2043 32.3762 19.6703C32.3762 20.1769 32.2904 20.6653 32.1186 21.1356C31.9502 21.6016 31.6976 22.0424 31.3608 22.4664C31.024 22.8919 30.6261 23.2627 30.1671 23.579C29.8056 23.8309 29.4044 24.0492 28.9635 24.234C29.6223 24.4145 30.2167 24.6454 30.7466 24.9183C31.3707 25.25 31.9007 25.6446 32.3415 26.1106C32.7824 26.5767 33.1043 27.0847 33.3272 27.6304C33.5451 28.1762 33.6541 28.764 33.6541 29.3938C33.6541 29.8892 33.5847 30.372 33.4461 30.8506C33.3024 31.3334 33.0894 31.8036 32.8121 32.2697C32.5248 32.7357 32.188 33.1555 31.8066 33.5292C31.4153 33.8986 30.9794 34.2261 30.4841 34.5074C29.9938 34.7845 29.444 35.0112 28.8397 35.1833C28.2404 35.3555 27.5816 35.473 26.8684 35.5318C26.4028 35.578 25.5757 35.6116 24.3919 35.641C23.3468 35.6619 22.0392 35.6787 20.474 35.6787H13.5397C13.4605 35.6787 13.3911 35.6242 13.3911 35.5528C13.3911 35.4856 13.4605 35.431 13.5397 35.431H20.474C22.0639 35.431 23.3666 35.4142 24.3869 35.3932C25.5558 35.3681 26.3731 35.3261 26.8436 35.2883C27.5338 35.2267 28.1678 35.1134 28.7456 34.9482C29.3268 34.7831 29.8534 34.5676 30.3256 34.3017C30.7912 34.033 31.2122 33.7181 31.5837 33.3654C31.9552 33.0044 32.2771 32.6013 32.5496 32.1563C32.8203 31.7057 33.0234 31.2522 33.1588 30.796C33.2925 30.3342 33.3619 29.8682 33.3619 29.3938C33.3619 28.7892 33.2578 28.2308 33.0498 27.7102C32.8418 27.1896 32.5297 26.711 32.1137 26.266C31.6927 25.8209 31.1825 25.4473 30.5881 25.1324C29.9888 24.8133 29.3004 24.5656 28.5178 24.3809C28.4781 24.3683 28.4385 24.3431 28.4237 24.3053C28.389 24.2466 28.4237 24.171 28.498 24.1458C29.0477 23.9443 29.5431 23.6924 29.9839 23.3859C30.4197 23.0836 30.7978 22.7309 31.1181 22.3279C31.4351 21.9248 31.6778 21.5008 31.8413 21.06C31.9998 20.6192 32.079 20.1531 32.079 19.6703C32.079 19.2253 32.0146 18.7971 31.8859 18.3982C31.7521 17.9952 31.5589 17.6173 31.3014 17.2605C31.0339 16.8994 30.7417 16.5761 30.4148 16.2864C30.0879 16.0009 29.7263 15.7532 29.335 15.5349L29.3301 15.5307C28.9338 15.3166 28.5178 15.1361 28.072 14.9975C27.6262 14.8506 27.1507 14.7456 26.6455 14.6784L26.6505 14.6742C26.1453 14.6071 25.5113 14.5567 24.7435 14.5231C23.9758 14.4895 23.0744 14.4685 22.0293 14.4685H11.5585ZM11.7071 35.5528C11.7071 35.6242 11.6378 35.6787 11.5585 35.6787C11.4793 35.6787 11.4149 35.6242 11.4149 35.5528V15.4342C11.4149 15.367 11.4793 15.3082 11.5585 15.3082C11.5635 15.3082 11.5684 15.3082 11.5734 15.3124H23.3369C23.4211 15.3124 23.4855 15.367 23.4855 15.4342C23.4855 15.5055 23.4211 15.5601 23.3369 15.5601H11.7071V35.5528ZM27.5123 33.8692C27.5916 33.8692 27.6559 33.9238 27.6559 33.991C27.6559 34.0624 27.5916 34.1169 27.5123 34.1169L13.5397 34.1337C13.4605 34.1337 13.3961 34.075 13.3961 34.0078V19.7375C13.3961 19.6661 13.4605 19.6115 13.5397 19.6115C13.6239 19.6115 13.6883 19.6661 13.6883 19.7375V33.886L27.5123 33.8692ZM17.9925 18.7467C17.9925 18.6795 18.0569 18.6249 18.1362 18.6249C18.2154 18.6249 18.2798 18.6795 18.2798 18.7467L18.2897 22.6302H19.4933C20.5879 22.6302 21.6826 22.6218 22.5295 22.6092C23.3121 22.5966 23.9114 22.5798 24.1442 22.5546C24.585 22.5126 24.9813 22.4329 25.323 22.3111C25.6599 22.1907 25.9504 22.0326 26.1948 21.8367C26.4424 21.6352 26.6208 21.4084 26.7446 21.1523C26.8635 20.892 26.9229 20.6024 26.9229 20.2749C26.9229 19.96 26.8684 19.6787 26.7644 19.4268C26.6604 19.1791 26.5019 18.9566 26.2938 18.7635C26.0809 18.5745 25.8233 18.4192 25.5113 18.3058C25.1943 18.1841 24.8228 18.1043 24.3968 18.0665C24.1393 18.0413 23.6341 18.0246 22.8911 18.012C22.158 17.998 21.1608 17.991 19.8995 17.991H17.0118V22.7561C17.0118 22.8233 16.9474 22.8779 16.8682 22.8779C16.784 22.8779 16.7196 22.8233 16.7196 22.7561V17.865C16.7196 17.7978 16.784 17.7391 16.8682 17.7391H19.8995C21.1212 17.7419 22.1201 17.7489 22.8961 17.7601C23.6539 17.7727 24.164 17.7936 24.4315 17.8188C24.8822 17.8608 25.2834 17.9448 25.6301 18.0749C25.9818 18.2051 26.274 18.3772 26.5118 18.5955C26.7446 18.8139 26.9229 19.0616 27.0418 19.3428C27.1606 19.6241 27.2151 19.9348 27.2151 20.2749C27.2184 20.6303 27.1524 20.9536 27.017 21.2447C26.8783 21.5386 26.6752 21.7947 26.3979 22.013C26.1254 22.2355 25.8035 22.4077 25.432 22.542C25.0622 22.6736 24.6445 22.7603 24.1789 22.8023C23.9411 22.8275 23.327 22.8443 22.5345 22.8569C21.6479 22.8737 20.5483 22.8779 19.4933 22.8779H18.1411C18.0619 22.8779 17.9975 22.8233 17.9975 22.7561L17.9925 18.7467ZM16.8286 31.9632C16.7493 31.9632 16.68 31.9086 16.68 31.8414C16.68 31.7742 16.7444 31.7155 16.8236 31.7155C17.2892 31.7113 18.4977 31.7197 19.8648 31.7239C22.2522 31.7365 25.1249 31.7533 25.3726 31.7113C25.749 31.6567 26.0908 31.5601 26.3979 31.4258C26.705 31.2914 26.9774 31.1193 27.2102 30.9052C27.443 30.6911 27.6163 30.4392 27.7352 30.1579C27.8541 29.8682 27.9135 29.5449 27.9135 29.1796C27.9135 28.8732 27.8689 28.5877 27.7798 28.3316C27.6857 28.0713 27.5519 27.8404 27.3687 27.6304L27.3637 27.622C27.1854 27.4163 26.9675 27.2358 26.7099 27.0847C26.4424 26.9251 26.1354 26.7992 25.7936 26.7026C25.4436 26.6046 24.8806 26.5291 24.1046 26.4759C23.327 26.4255 22.3364 26.4045 21.1377 26.4045H17.0118V30.8212H24.699C24.803 30.8212 24.8971 30.817 24.9961 30.817C25.0754 30.817 25.1398 30.8716 25.1398 30.943C25.1398 31.0101 25.0754 31.0689 24.9961 31.0689C24.9004 31.0689 24.8013 31.0689 24.699 31.0689C24.481 31.0689 24.4117 31.0689 24.3919 31.0689H16.8682C16.784 31.0689 16.7196 31.0143 16.7196 30.9472V26.2786C16.7196 26.2072 16.784 26.1526 16.8682 26.1526H21.1377C22.3463 26.1526 23.3418 26.1778 24.1294 26.2324C24.9268 26.2828 25.5063 26.3583 25.8827 26.4633C26.2559 26.5697 26.5861 26.7082 26.8734 26.8789C27.1606 27.0469 27.4033 27.2484 27.6015 27.4793L27.6064 27.4835C27.8078 27.7158 27.9581 27.9747 28.0571 28.2602C28.1562 28.5415 28.2107 28.848 28.2107 29.1796C28.2107 29.5701 28.1413 29.9228 28.0126 30.2376C27.8788 30.5567 27.6857 30.8296 27.4231 31.0689V31.0731C27.1656 31.3082 26.8684 31.4971 26.5365 31.6483C26.1997 31.791 25.8283 31.896 25.4221 31.959C25.1546 32.001 22.2621 31.9842 19.8648 31.9716C18.4977 31.9632 17.2941 31.959 16.8286 31.9632V31.9632Z" fill="#05172E"/>
<path d="M10.1767 19.0028C10.1767 18.9356 10.2411 18.881 10.3204 18.881C10.4046 18.881 10.4689 18.9398 10.4689 19.007L10.2312 38.181C10.2312 38.2524 10.1668 38.3069 10.0826 38.3027C10.0034 38.3027 9.93896 38.2482 9.93896 38.1768L10.1767 19.0028Z" fill="#05172E"/>
<path d="M8.88869 20.5394C8.88869 20.4722 8.95803 20.4176 9.03728 20.4176C9.12148 20.4176 9.18587 20.4722 9.18587 20.5394L9.01252 34.6417C9.01252 34.7089 8.94317 34.7677 8.86392 34.7635C8.77972 34.7635 8.71533 34.7089 8.71533 34.6375L8.88869 20.5394Z" fill="#05172E"/>
<path d="M24.8424 16.2151C24.7632 16.2025 24.7087 16.1395 24.7236 16.0723C24.7335 16.0051 24.8127 15.959 24.892 15.9716C25.3014 16.0275 25.6894 16.1143 26.0559 16.2319C26.4225 16.3494 26.7692 16.4964 27.0961 16.6727L27.101 16.6769C27.4246 16.856 27.7218 17.0645 27.9926 17.3024C28.26 17.5375 28.5027 17.8062 28.7207 18.1001C28.9337 18.3982 29.1021 18.7173 29.211 19.0532C29.32 19.389 29.3745 19.7417 29.3745 20.1112C29.3745 20.51 29.3051 20.8963 29.1714 21.2657C29.0377 21.631 28.8396 21.9836 28.5721 22.3195C28.3046 22.6554 27.9926 22.9493 27.631 23.197C27.2645 23.4489 26.8583 23.6546 26.4026 23.8225C26.3284 23.8519 26.2442 23.8225 26.2095 23.7595C26.1798 23.6966 26.2095 23.6252 26.2838 23.5958C26.7196 23.4405 27.101 23.2431 27.4428 23.0038C27.7846 22.7729 28.0768 22.4958 28.3294 22.181C28.577 21.8675 28.7653 21.5386 28.894 21.1943C29.0179 20.8459 29.0823 20.4848 29.0823 20.1112C29.0823 19.7627 29.0278 19.431 28.9287 19.1161C28.8247 18.8055 28.6712 18.5116 28.4681 18.2303C28.265 17.949 28.0372 17.6971 27.7796 17.4746C27.522 17.2479 27.2447 17.0547 26.9425 16.8868L26.9376 16.8826C26.6305 16.7147 26.3036 16.5761 25.9569 16.4628C25.6052 16.3536 25.2337 16.2696 24.8424 16.2151V16.2151ZM24.6691 21.971C24.6096 22.0172 24.5205 22.0172 24.466 21.9668C24.4066 21.9165 24.4115 21.8409 24.466 21.7905C24.6542 21.6394 24.7979 21.463 24.892 21.2657C24.9861 21.0684 25.0307 20.8417 25.0307 20.5898C25.0307 20.3435 24.9894 20.1238 24.9068 19.9306C24.8226 19.7375 24.7038 19.5696 24.5403 19.4184C24.3818 19.2715 24.1837 19.1539 23.941 19.0616C23.6933 18.9692 23.4011 18.9104 23.0742 18.881C22.9949 18.8726 22.9355 18.8097 22.9454 18.7425C22.9553 18.6711 23.0296 18.6249 23.1089 18.6333C23.4655 18.6627 23.7825 18.7341 24.0599 18.8348C24.3372 18.9398 24.57 19.0784 24.7582 19.2505C24.9465 19.424 25.0884 19.6227 25.1842 19.8467C25.2783 20.0692 25.3278 20.3127 25.3278 20.5898C25.3278 20.8711 25.2684 21.1272 25.1594 21.3581C25.0505 21.589 24.892 21.7947 24.6691 21.971V21.971Z" fill="#05172E"/>
<path d="M47.9999 43.2166L42.4003 47.9631L41.8992 47.5198L47.477 42.7734L47.9999 43.2166Z" fill="#FF6352"/>
<path d="M6.10077 0.443246L0.522922 5.17122L0 4.72797L5.59964 0L6.10077 0.443246Z" fill="#FF6352"/>
<path fill-rule="evenodd" clip-rule="evenodd" d="M45.9746 2.25183L45.865 40.9271L45.2978 40.9259L45.406 2.73465L8.71645 2.86293L8.71411 2.38211L45.9746 2.25183Z" fill="#FF6352"/>
<path d="M65.528 16.18L67.208 14.404V21.736L66.368 20.68H72.896V23.56H66.368L67.208 22.504V29.896L65.528 28.12H74.228V31H63.464V13.3H74.228V16.18H65.528ZM76.5875 25.348V23.068H85.3355V25.348H76.5875ZM109.984 31.276C108.608 31.276 107.396 30.992 106.348 30.424C105.3 29.856 104.48 29.076 103.888 28.084C103.304 27.084 103.012 25.932 103.012 24.628C103.012 23.332 103.304 22.188 103.888 21.196C104.48 20.196 105.3 19.42 106.348 18.868C107.396 18.308 108.608 18.028 109.984 18.028C111.36 18.028 112.572 18.308 113.62 18.868C114.668 19.42 115.484 20.196 116.068 21.196C116.66 22.188 116.956 23.332 116.956 24.628C116.956 25.932 116.66 27.084 116.068 28.084C115.484 29.076 114.668 29.856 113.62 30.424C112.572 30.992 111.36 31.276 109.984 31.276ZM109.984 28.324C110.632 28.324 111.196 28.172 111.676 27.868C112.156 27.564 112.528 27.136 112.792 26.584C113.056 26.024 113.188 25.372 113.188 24.628C113.188 23.884 113.056 23.24 112.792 22.696C112.528 22.144 112.156 21.72 111.676 21.424C111.196 21.128 110.632 20.98 109.984 20.98C109.344 20.98 108.78 21.128 108.292 21.424C107.812 21.72 107.44 22.144 107.176 22.696C106.912 23.24 106.78 23.884 106.78 24.628C106.78 25.372 106.912 26.024 107.176 26.584C107.44 27.136 107.812 27.564 108.292 27.868C108.78 28.172 109.344 28.324 109.984 28.324ZM125.664 31.276C124.288 31.276 123.076 30.992 122.028 30.424C120.98 29.856 120.16 29.076 119.568 28.084C118.984 27.084 118.692 25.932 118.692 24.628C118.692 23.332 118.984 22.188 119.568 21.196C120.16 20.196 120.98 19.42 122.028 18.868C123.076 18.308 124.288 18.028 125.664 18.028C127.04 18.028 128.252 18.308 129.3 18.868C130.348 19.42 131.164 20.196 131.748 21.196C132.34 22.188 132.636 23.332 132.636 24.628C132.636 25.932 132.34 27.084 131.748 28.084C131.164 29.076 130.348 29.856 129.3 30.424C128.252 30.992 127.04 31.276 125.664 31.276ZM125.664 28.324C126.312 28.324 126.876 28.172 127.356 27.868C127.836 27.564 128.208 27.136 128.472 26.584C128.736 26.024 128.868 25.372 128.868 24.628C128.868 23.884 128.736 23.24 128.472 22.696C128.208 22.144 127.836 21.72 127.356 21.424C126.876 21.128 126.312 20.98 125.664 20.98C125.024 20.98 124.46 21.128 123.972 21.424C123.492 21.72 123.12 22.144 122.856 22.696C122.592 23.24 122.46 23.884 122.46 24.628C122.46 25.372 122.592 26.024 122.856 26.584C123.12 27.136 123.492 27.564 123.972 27.868C124.46 28.172 125.024 28.324 125.664 28.324ZM134.96 31V12.244H138.488V22.984L137.756 22.6L142.616 18.256H147.176L140.864 23.896L141.656 22.48L147.068 31H143.156L139.22 24.436L140.168 24.508L138.104 26.38L138.488 24.784V31H134.96ZM153.319 31.288C152.559 31.288 151.827 31.2 151.123 31.024C150.419 30.848 149.787 30.588 149.227 30.244C148.675 29.9 148.235 29.472 147.907 28.96C147.587 28.44 147.427 27.836 147.427 27.148C147.427 27.116 147.427 27.08 147.427 27.04C147.427 26.992 147.427 26.956 147.427 26.932H151.123C151.123 26.956 151.123 26.984 151.123 27.016C151.123 27.04 151.123 27.068 151.123 27.1C151.123 27.564 151.327 27.904 151.735 28.12C152.151 28.336 152.711 28.444 153.415 28.444C153.783 28.444 154.135 28.408 154.471 28.336C154.815 28.256 155.095 28.132 155.311 27.964C155.535 27.788 155.647 27.568 155.647 27.304C155.647 26.88 155.411 26.58 154.939 26.404C154.475 26.228 153.727 26.052 152.695 25.876C152.111 25.78 151.519 25.644 150.919 25.468C150.319 25.292 149.767 25.06 149.263 24.772C148.759 24.476 148.355 24.104 148.051 23.656C147.747 23.2 147.595 22.648 147.595 22C147.595 21.136 147.855 20.408 148.375 19.816C148.903 19.224 149.603 18.776 150.475 18.472C151.347 18.168 152.307 18.016 153.355 18.016C154.355 18.016 155.287 18.184 156.151 18.52C157.015 18.848 157.715 19.324 158.251 19.948C158.787 20.564 159.055 21.308 159.055 22.18C159.055 22.196 159.055 22.22 159.055 22.252C159.055 22.284 159.055 22.316 159.055 22.348H155.395C155.395 22.316 155.395 22.288 155.395 22.264C155.395 22.24 155.395 22.22 155.395 22.204C155.395 21.884 155.291 21.624 155.083 21.424C154.883 21.224 154.627 21.076 154.315 20.98C154.003 20.876 153.679 20.824 153.342 20.824C153.039 20.824 152.723 20.86 152.395 20.932C152.075 20.996 151.803 21.108 151.579 21.268C151.355 21.42 151.243 21.636 151.243 21.916C151.243 22.188 151.363 22.412 151.603 22.588C151.843 22.756 152.179 22.896 152.611 23.008C153.043 23.112 153.543 23.212 154.111 23.308C154.647 23.396 155.211 23.52 155.803 23.68C156.403 23.832 156.963 24.052 157.483 24.34C158.011 24.62 158.435 24.992 158.755 25.456C159.083 25.912 159.247 26.492 159.247 27.196C159.247 27.924 159.079 28.548 158.743 29.068C158.407 29.588 157.951 30.012 157.375 30.34C156.807 30.66 156.171 30.896 155.467 31.048C154.771 31.208 154.055 31.288 153.319 31.288Z" fill="#F6F9FE"/>
<path d="M95.2334 13.3C96.4734 13.3 97.4894 13.472 98.2814 13.816C99.0814 14.16 99.6734 14.656 100.057 15.304C100.441 15.944 100.633 16.7 100.633 17.572C100.633 18.444 100.461 19.188 100.117 19.804C99.7734 20.412 99.3374 20.884 98.8094 21.22C98.2814 21.548 97.7454 21.732 97.2014 21.772C97.7694 21.788 98.3534 21.936 98.9534 22.216C99.5534 22.488 100.057 22.932 100.465 23.548C100.873 24.156 101.077 24.968 101.077 25.984C101.077 26.944 100.881 27.804 100.489 28.564C100.105 29.316 99.4854 29.912 98.6294 30.352C97.7734 30.784 96.6294 31 95.1974 31H88.2374V13.3H95.2334ZM91.8014 21.496L90.5654 20.452H94.0934C95.0374 20.452 95.7454 20.252 96.2174 19.852C96.6894 19.444 96.9254 18.896 96.9254 18.208C96.9254 17.744 96.8254 17.364 96.6254 17.068C96.4254 16.764 96.1294 16.54 95.7374 16.396C95.3454 16.252 94.8614 16.18 94.2854 16.18H90.1214L91.8014 14.404V21.496ZM94.4774 28.108C95.3894 28.108 96.0814 27.9 96.5534 27.484C97.0334 27.06 97.2734 26.488 97.2734 25.768C97.2734 25.36 97.2014 25.004 97.0574 24.7C96.9214 24.396 96.7254 24.144 96.4694 23.944C96.2134 23.736 95.9014 23.58 95.5334 23.476C95.1734 23.364 94.7734 23.308 94.3334 23.308H90.5654L91.8014 22.276V29.884L90.1214 28.108H94.4774Z" fill="#FF6352"/>
</svg>
