<svg width="99" height="32" viewBox="0 0 99 32" fill="none" xmlns="http://www.w3.org/2000/svg">
<path d="M3.528 8.18L5.208 6.404V13.736L4.368 12.68H10.896V15.56H4.368L5.208 14.504V21.896L3.528 20.12H12.228V23H1.464V5.3H12.228V8.18H3.528ZM14.5875 17.348V15.068H23.3355V17.348H14.5875ZM47.9844 23.276C46.6084 23.276 45.3964 22.992 44.3484 22.424C43.3004 21.856 42.4804 21.076 41.8884 20.084C41.3044 19.084 41.0124 17.932 41.0124 16.628C41.0124 15.332 41.3044 14.188 41.8884 13.196C42.4804 12.196 43.3004 11.42 44.3484 10.868C45.3964 10.308 46.6084 10.028 47.9844 10.028C49.3604 10.028 50.5724 10.308 51.6204 10.868C52.6684 11.42 53.4844 12.196 54.0684 13.196C54.6604 14.188 54.9564 15.332 54.9564 16.628C54.9564 17.932 54.6604 19.084 54.0684 20.084C53.4844 21.076 52.6684 21.856 51.6204 22.424C50.5724 22.992 49.3604 23.276 47.9844 23.276ZM47.9844 20.324C48.6324 20.324 49.1964 20.172 49.6764 19.868C50.1564 19.564 50.5284 19.136 50.7924 18.584C51.0564 18.024 51.1884 17.372 51.1884 16.628C51.1884 15.884 51.0564 15.24 50.7924 14.696C50.5284 14.144 50.1564 13.72 49.6764 13.424C49.1964 13.128 48.6324 12.98 47.9844 12.98C47.3444 12.98 46.7804 13.128 46.2924 13.424C45.8124 13.72 45.4404 14.144 45.1764 14.696C44.9124 15.24 44.7804 15.884 44.7804 16.628C44.7804 17.372 44.9124 18.024 45.1764 18.584C45.4404 19.136 45.8124 19.564 46.2924 19.868C46.7804 20.172 47.3444 20.324 47.9844 20.324ZM63.6641 23.276C62.2881 23.276 61.0761 22.992 60.0281 22.424C58.9801 21.856 58.1601 21.076 57.5681 20.084C56.9841 19.084 56.6921 17.932 56.6921 16.628C56.6921 15.332 56.9841 14.188 57.5681 13.196C58.1601 12.196 58.9801 11.42 60.0281 10.868C61.0761 10.308 62.2881 10.028 63.6641 10.028C65.0401 10.028 66.2521 10.308 67.3001 10.868C68.3481 11.42 69.1641 12.196 69.7481 13.196C70.3401 14.188 70.6361 15.332 70.6361 16.628C70.6361 17.932 70.3401 19.084 69.7481 20.084C69.1641 21.076 68.3481 21.856 67.3001 22.424C66.2521 22.992 65.0401 23.276 63.6641 23.276ZM63.6641 20.324C64.3121 20.324 64.8761 20.172 65.3561 19.868C65.8361 19.564 66.2081 19.136 66.4721 18.584C66.7361 18.024 66.8681 17.372 66.8681 16.628C66.8681 15.884 66.7361 15.24 66.4721 14.696C66.2081 14.144 65.8361 13.72 65.3561 13.424C64.8761 13.128 64.3121 12.98 63.6641 12.98C63.0241 12.98 62.4601 13.128 61.9721 13.424C61.4921 13.72 61.1201 14.144 60.8561 14.696C60.5921 15.24 60.4601 15.884 60.4601 16.628C60.4601 17.372 60.5921 18.024 60.8561 18.584C61.1201 19.136 61.4921 19.564 61.9721 19.868C62.4601 20.172 63.0241 20.324 63.6641 20.324ZM72.9598 23V4.244H76.4878V14.984L75.7558 14.6L80.6158 10.256H85.1758L78.8638 15.896L79.6558 14.48L85.0678 23H81.1558L77.2198 16.436L78.1678 16.508L76.1038 18.38L76.4878 16.784V23H72.9598ZM91.3185 23.288C90.5585 23.288 89.8265 23.2 89.1225 23.024C88.4185 22.848 87.7865 22.588 87.2265 22.244C86.6745 21.9 86.2345 21.472 85.9065 20.96C85.5865 20.44 85.4265 19.836 85.4265 19.148C85.4265 19.116 85.4265 19.08 85.4265 19.04C85.4265 18.992 85.4265 18.956 85.4265 18.932H89.1225C89.1225 18.956 89.1225 18.984 89.1225 19.016C89.1225 19.04 89.1225 19.068 89.1225 19.1C89.1225 19.564 89.3265 19.904 89.7345 20.12C90.1505 20.336 90.7105 20.444 91.4145 20.444C91.7825 20.444 92.1345 20.408 92.4705 20.336C92.8145 20.256 93.0945 20.132 93.3105 19.964C93.5345 19.788 93.6465 19.568 93.6465 19.304C93.6465 18.88 93.4105 18.58 92.9385 18.404C92.4745 18.228 91.7265 18.052 90.6945 17.876C90.1105 17.78 89.5185 17.644 88.9185 17.468C88.3185 17.292 87.7665 17.06 87.2625 16.772C86.7585 16.476 86.3545 16.104 86.0505 15.656C85.7465 15.2 85.5945 14.648 85.5945 14C85.5945 13.136 85.8545 12.408 86.3745 11.816C86.9025 11.224 87.6025 10.776 88.4745 10.472C89.3465 10.168 90.3065 10.016 91.3545 10.016C92.3545 10.016 93.2865 10.184 94.1505 10.52C95.0145 10.848 95.7145 11.324 96.2505 11.948C96.7865 12.564 97.0545 13.308 97.0545 14.18C97.0545 14.196 97.0545 14.22 97.0545 14.252C97.0545 14.284 97.0545 14.316 97.0545 14.348H93.3945C93.3945 14.316 93.3945 14.288 93.3945 14.264C93.3945 14.24 93.3945 14.22 93.3945 14.204C93.3945 13.884 93.2905 13.624 93.0825 13.424C92.8825 13.224 92.6265 13.076 92.3145 12.98C92.0025 12.876 91.6785 12.824 91.3425 12.824C91.0385 12.824 90.7225 12.86 90.3945 12.932C90.0745 12.996 89.8025 13.108 89.5785 13.268C89.3545 13.42 89.2425 13.636 89.2425 13.916C89.2425 14.188 89.3625 14.412 89.6025 14.588C89.8425 14.756 90.1785 14.896 90.6105 15.008C91.0425 15.112 91.5425 15.212 92.1105 15.308C92.6465 15.396 93.2105 15.52 93.8025 15.68C94.4025 15.832 94.9625 16.052 95.4825 16.34C96.0105 16.62 96.4345 16.992 96.7545 17.456C97.0825 17.912 97.2465 18.492 97.2465 19.196C97.2465 19.924 97.0785 20.548 96.7425 21.068C96.4065 21.588 95.9505 22.012 95.3745 22.34C94.8065 22.66 94.1705 22.896 93.4665 23.048C92.7705 23.208 92.0545 23.288 91.3185 23.288Z" fill="#05172E"/>
<path d="M33.2334 5.3C34.4734 5.3 35.4894 5.472 36.2814 5.816C37.0814 6.16 37.6734 6.656 38.0574 7.304C38.4414 7.944 38.6334 8.7 38.6334 9.572C38.6334 10.444 38.4614 11.188 38.1174 11.804C37.7734 12.412 37.3374 12.884 36.8094 13.22C36.2814 13.548 35.7454 13.732 35.2014 13.772C35.7694 13.788 36.3534 13.936 36.9534 14.216C37.5534 14.488 38.0574 14.932 38.4654 15.548C38.8734 16.156 39.0774 16.968 39.0774 17.984C39.0774 18.944 38.8814 19.804 38.4894 20.564C38.1054 21.316 37.4854 21.912 36.6294 22.352C35.7734 22.784 34.6294 23 33.1974 23H26.2374V5.3H33.2334ZM29.8014 13.496L28.5654 12.452H32.0934C33.0374 12.452 33.7454 12.252 34.2174 11.852C34.6894 11.444 34.9254 10.896 34.9254 10.208C34.9254 9.744 34.8254 9.364 34.6254 9.068C34.4254 8.764 34.1294 8.54 33.7374 8.396C33.3454 8.252 32.8614 8.18 32.2854 8.18H28.1214L29.8014 6.404V13.496ZM32.4774 20.108C33.3894 20.108 34.0814 19.9 34.5534 19.484C35.0334 19.06 35.2734 18.488 35.2734 17.768C35.2734 17.36 35.2014 17.004 35.0574 16.7C34.9214 16.396 34.7254 16.144 34.4694 15.944C34.2134 15.736 33.9014 15.58 33.5334 15.476C33.1734 15.364 32.7734 15.308 32.3334 15.308H28.5654L29.8014 14.276V21.884L28.1214 20.108H32.4774Z" fill="#FF6352"/>
</svg>
