<svg width="48" height="48" viewBox="0 0 48 48" fill="none" xmlns="http://www.w3.org/2000/svg">
<path d="M24 0.959961C11.2752 0.959961 0.959961 11.2752 0.959961 24C0.959961 36.7248 11.2752 47.04 24 47.04C36.7248 47.04 47.04 36.7248 47.04 24C47.04 11.2752 36.7248 0.959961 24 0.959961ZM25.5768 29.46C24.0984 29.3472 23.4792 28.6152 22.3224 27.9144C21.6864 31.2528 20.9088 34.4544 18.6048 36.1272C17.892 31.0776 19.6464 27.2904 20.4624 23.2656C19.0728 20.9256 20.628 16.2192 23.5608 17.376C27.168 18.8064 20.436 26.076 24.9552 26.9856C29.6736 27.9312 31.6008 18.7968 28.6752 15.8304C24.4464 11.5416 16.3704 15.732 17.364 21.8712C17.604 23.3712 19.1568 23.8272 17.9832 25.8984C15.2784 25.2984 14.4696 23.1648 14.5752 20.3208C14.7408 15.6648 18.7584 12.4032 22.7856 11.9544C27.8808 11.388 32.6616 13.824 33.324 18.6192C34.0656 24.0288 31.0224 29.8824 25.5768 29.46Z" fill="#F6F9FE"/>
</svg>
